# File created by Blade
# Date/Time:  Thu Jan 22 19:29:47 2015
#---------------------------------------------------------
:version 1.10
:name HOM
:units
  mass 1.0
  length 1.000000
  angle deg
:documentation
     Acclaim Skeleton File
:root
   axis xyz
   order TX TY TZ RX RY RZ
   position 0.000000 0.000000 0.000000
   orientation 0 0 0
:bonedata
   begin
      id 1
      name RightUpLeg_dum
      direction -1.000000 0.000000 0.000000
      length 4.478084
      axis 0.0 0.0 0.0 xyz
   end
   begin
      id 2
      name LeftUpLeg_dum
      direction 1.000000 0.000000 0.000000
      length 4.478084
      axis 0.0 0.0 0.0 xyz
   end
   begin
      id 3
      name Spine_dum
      direction 0.000000 1.000000 0.000000
      length 6.068208
      axis 0.0 0.0 0.0 xyz
   end
   begin
      id 4
      name RightUpLeg
      direction 0.000000 -1.000000 0.000000
      length 16.405774
      axis 0.0 0.0 0.0 xyz
      dof rx ry rz
   end
   begin
      id 5
      name RightLeg
      direction 0.000000 -1.000000 0.000000
      length 14.644143
      axis 0.0 0.0 0.0 xyz
      dof rx ry rz
   end
   begin
      id 6
      name RightFoot
      direction 0.000000 -0.258819 0.965926
      length 5.806150
      axis 15.0 0.0 0.0 xyz
      dof rx ry rz
   end
   begin
      id 7
      name RightToeBase
      direction 0.000000 0.000000 1.000000
      length 2.952750
      axis 0.0 0.0 0.0 xyz
      dof rx ry rz
   end
   begin
      id 8
      name LeftUpLeg
      direction 0.000000 -1.000000 0.000000
      length 16.405774
      axis 0.0 0.0 0.0 xyz
      dof rx ry rz
   end
   begin
      id 9
      name LeftLeg
      direction 0.000000 -1.000000 0.000000
      length 14.644143
      axis 0.0 0.0 0.0 xyz
      dof rx ry rz
   end
   begin
      id 10
      name LeftFoot
      direction 0.000000 -0.258819 0.965926
      length 5.806150
      axis 15.0 0.0 0.0 xyz
      dof rx ry rz
   end
   begin
      id 11
      name LeftToeBase
      direction 0.000000 0.000000 1.000000
      length 2.952750
      axis 0.0 0.0 0.0 xyz
      dof rx ry rz
   end
   begin
      id 12
      name Spine
      direction 0.000000 1.000000 0.000000
      length 0.000000
      axis 0.0 0.0 0.0 xyz
      dof rx ry rz
   end
   begin
      id 13
      name Spine_dum1
      direction 0.000000 1.000000 0.000000
      length 10.013923
      axis 0.0 0.0 0.0 xyz
   end
   begin
      id 14
      name Spine_dum2
      direction 0.000000 1.000000 0.000000
      length 10.013923
      axis 0.0 0.0 0.0 xyz
   end
   begin
      id 15
      name Spine_dum3
      direction 0.000000 1.000000 0.000000
      length 15.777476
      axis 0.0 0.0 0.0 xyz
   end
   begin
      id 16
      name RightShoulder
      direction -1.000000 0.000000 0.000000
      length 7.190220
      axis 0.0 0.0 90.0 xyz
      dof rx ry rz
   end
   begin
      id 17
      name RightArm
      direction -1.000000 0.000000 0.000000
      length 10.177469
      axis 0.0 0.0 90.0 xyz
      dof rx ry rz
   end
   begin
      id 18
      name RightForeArm
      direction -1.000000 0.000000 0.000000
      length 8.392114
      axis 0.0 0.0 90.0 xyz
      dof ry rz rx
   end
   begin
      id 19
      name RightHand
      direction -1.000000 0.000000 0.000000
      length 0.000000
      axis 0.0 0.0 90.0 xyz
      dof rx ry rz
   end
   begin
      id 20
      name RightHand_dum1
      direction -1.000000 0.000000 0.000000
      length 3.937000
      axis 0.0 0.0 90.0 xyz
   end
   begin
      id 21
      name RightHand_dum2
      direction 0.000000 0.000000 0.000000
      length 0.000000
      axis 0.0 0.0 90.0 xyz
   end
   begin
      id 22
      name RightHandThumb1
      direction 0.000000 0.000000 1.000000
      length 3.937000
      axis 0.0 0.0 90.0 xyz
      dof rx rz ry
   end
   begin
      id 23
      name LeftShoulder
      direction 1.000000 0.000000 0.000000
      length 7.190220
      axis 0.0 0.0 -90.0 xyz
      dof rx ry rz
   end
   begin
      id 24
      name LeftArm
      direction 1.000000 0.000000 0.000000
      length 10.177469
      axis 0.0 0.0 -90.0 xyz
      dof rx ry rz
   end
   begin
      id 25
      name LeftForeArm
      direction 1.000000 0.000000 0.000000
      length 8.392114
      axis 0.0 0.0 -90.0 xyz
      dof ry rz rx
   end
   begin
      id 26
      name LeftHand
      direction 1.000000 0.000000 0.000000
      length 0.000000
      axis 0.0 0.0 -90.0 xyz
      dof rx ry rz
   end
   begin
      id 27
      name LeftHand_dum1
      direction 1.000000 0.000000 0.000000
      length 3.937000
      axis 0.0 0.0 -90.0 xyz
   end
   begin
      id 28
      name LeftHand_dum2
      direction 0.000000 0.000000 0.000000
      length 0.000000
      axis 0.0 0.0 -90.0 xyz
   end
   begin
      id 29
      name LeftHandThumb1
      direction 0.000000 0.000000 1.000000
      length 3.937000
      axis 0.0 0.0 -90.0 xyz
      dof rx rz ry
   end
   begin
      id 30
      name Head
      direction 0.000000 1.000000 0.000000
      length 4.527550
      axis 0.0 0.0 0.0 xyz
      dof rx ry rz
   end
:hierarchy
   begin
      root RightUpLeg_dum LeftUpLeg_dum Spine_dum
      RightUpLeg_dum RightUpLeg
      LeftUpLeg_dum LeftUpLeg
      Spine_dum Spine
      RightUpLeg RightLeg
      RightLeg RightFoot
      RightFoot RightToeBase
      LeftUpLeg LeftLeg
      LeftLeg LeftFoot
      LeftFoot LeftToeBase
      Spine Spine_dum1 Spine_dum2 Spine_dum3
      Spine_dum1 RightShoulder
      Spine_dum2 LeftShoulder
      Spine_dum3 Head
      RightShoulder RightArm
      RightArm RightForeArm
      RightForeArm RightHand
      RightHand RightHand_dum1 RightHand_dum2
      RightHand_dum2 RightHandThumb1
      LeftShoulder LeftArm
      LeftArm LeftForeArm
      LeftForeArm LeftHand
      LeftHand LeftHand_dum1 LeftHand_dum2
      LeftHand_dum2 LeftHandThumb1
   end

# File created by Blade
# Date/Time:  Thu Jan 22 19:29:39 2015
# Frame Rate: 120.000 fps
#------------------------------------------------------
:FULLY-SPECIFIED
:DEGREES
131
root -2.309502 33.147578 0.635040 8.072404 -3.279236 3.112291
RightUpLeg -2.222938 -6.349492 -1.717605
RightLeg 0.025248 -0.000000 -0.000000
RightFoot -11.634109 -5.215657 3.713785
RightToeBase 4.938741 -0.000000 -0.000000
LeftUpLeg -3.002869 1.970481 -0.189873
LeftLeg 2.343185 -0.000000 -0.000000
LeftFoot -10.770872 1.949458 -16.419142
LeftToeBase 8.100306 -0.000000 -0.000000
Spine -9.945117 -2.087832 -2.452538
RightShoulder -18.851648 -14.915148 -25.431042
RightArm 19.028910 32.096329 44.730329
RightForeArm -7.839322 -0.000000 12.477337
RightHand 8.890873 0.000000 4.831878
RightHandThumb1 -24.326973 -0.000000 -32.862282
LeftShoulder -24.609608 7.805515 28.192233
LeftArm 17.145184 -32.126770 -41.558178
LeftForeArm 1.083745 -0.000000 6.369748
LeftHand -3.970897 -0.000000 5.351118
LeftHandThumb1 -26.253704 0.000000 33.147579
Head 0.169171 6.006787 -0.595826
132
root -2.310019 33.147581 0.633656 8.077574 -3.290037 3.109362
RightUpLeg -2.227808 -6.319847 -1.714310
RightLeg 0.016628 -0.000000 -0.000000
RightFoot -11.637947 -5.235465 3.738284
RightToeBase 5.003257 -0.000000 -0.000000
LeftUpLeg -3.007930 1.968608 -0.188613
LeftLeg 2.349837 -0.000000 -0.000000
LeftFoot -10.765123 1.946026 -16.464581
LeftToeBase 8.001767 -0.000000 -0.000000
Spine -9.929711 -2.096605 -2.455554
RightShoulder -18.840274 -14.933878 -25.416870
RightArm 19.038812 32.077250 44.725015
RightForeArm -7.810698 0.000000 12.523008
RightHand 8.927042 -0.000000 4.737757
RightHandThumb1 -24.326973 -0.000000 -32.862282
LeftShoulder -24.633905 7.813783 28.141599
LeftArm 17.103828 -32.125618 -41.544210
LeftForeArm 1.113316 -0.000000 6.521714
LeftHand -3.986112 -0.000000 5.408809
LeftHandThumb1 -26.253704 0.000000 33.147579
Head 0.286907 6.106065 -0.579279
133
root -2.311907 33.147605 0.630760 8.089249 -3.311265 3.104283
RightUpLeg -2.249574 -6.319525 -1.705740
RightLeg 0.018515 -0.000000 -0.000000
RightFoot -11.624912 -5.219317 3.714780
RightToeBase 4.962247 -0.000000 -0.000000
LeftUpLeg -3.021442 1.968653 -0.182087
LeftLeg 2.350873 -0.000000 -0.000000
LeftFoot -10.775500 1.957675 -16.501403
LeftToeBase 8.067446 -0.000000 -0.000000
Spine -9.920843 -2.085168 -2.468693
RightShoulder -18.828625 -14.953337 -25.402571
RightArm 19.033060 32.031314 44.720189
RightForeArm -7.764363 0.000000 12.567606
RightHand 8.907940 -0.000000 4.577536
RightHandThumb1 -24.326973 -0.000000 -32.862282
LeftShoulder -24.650225 7.834956 28.096808
LeftArm 17.111958 -32.119213 -41.547257
LeftForeArm 1.161151 -0.000000 6.598130
LeftHand -3.880501 0.000000 5.464725
LeftHandThumb1 -26.253704 0.000000 33.147579
Head 0.429159 6.227406 -0.539765
134
root -2.315497 33.147488 0.630708 8.073070 -3.318781 3.094651
RightUpLeg -2.224764 -6.319553 -1.695206
RightLeg -0.001611 -0.000000 0.000000
RightFoot -11.610574 -5.195723 3.728587
RightToeBase 5.011409 -0.000000 -0.000000
LeftUpLeg -3.001738 1.974920 -0.166088
LeftLeg 2.348360 -0.000000 -0.000000
LeftFoot -10.780828 1.960184 -16.483276
LeftToeBase 8.055955 -0.000000 -0.000000
Spine -9.886769 -2.079959 -2.480089
RightShoulder -18.814257 -14.968247 -25.395755
RightArm 19.027979 31.998362 44.732883
RightForeArm -7.796687 -0.000000 12.593283
RightHand 8.923735 0.000000 4.474339
RightHandThumb1 -24.326973 -0.000000 -32.862282
LeftShoulder -24.649232 7.832312 28.065862
LeftArm 17.114005 -32.094527 -41.527653
LeftForeArm 1.157740 -0.000000 6.630948
LeftHand -3.746089 0.000000 5.473780
LeftHandThumb1 -26.253704 0.000000 33.147579
Head 0.601798 6.338289 -0.498697
135
root -2.317960 33.147494 0.626719 8.070252 -3.336252 3.091588
RightUpLeg -2.228492 -6.303851 -1.688041
RightLeg -0.009863 -0.000000 0.000000
RightFoot -11.594466 -5.201021 3.693242
RightToeBase 4.980226 -0.000000 -0.000000
LeftUpLeg -3.004757 1.974806 -0.160935
LeftLeg 2.343297 -0.000000 -0.000000
LeftFoot -10.791066 2.013626 -16.406635
LeftToeBase 8.089593 -0.000000 -0.000000
Spine -9.852670 -2.076089 -2.501663
RightShoulder -18.801924 -14.961482 -25.378719
RightArm 19.035913 31.953108 44.735284
RightForeArm -7.829428 -0.000000 12.579220
RightHand 8.984364 0.000000 4.344389
RightHandThumb1 -24.326973 -0.000000 -32.862282
LeftShoulder -24.651092 7.814705 28.060235
LeftArm 17.081059 -32.031915 -41.503471
LeftForeArm 1.129639 -0.000000 6.676672
LeftHand -3.674327 -0.000000 5.607597
LeftHandThumb1 -26.253704 0.000000 33.147579
Head 0.758477 6.364857 -0.413488
136
root -2.318533 33.147486 0.621727 8.092948 -3.373548 3.092358
RightUpLeg -2.269720 -6.270416 -1.684180
RightLeg -0.004307 -0.000000 0.000000
RightFoot -11.587418 -5.223945 3.667712
RightToeBase 4.988079 -0.000000 -0.000000
LeftUpLeg -3.037041 1.973474 -0.167513
LeftLeg 2.363716 -0.000000 -0.000000
LeftFoot -10.805388 2.022890 -16.500114
LeftToeBase 8.051578 -0.000000 -0.000000
Spine -9.862421 -2.041885 -2.524444
RightShoulder -18.787465 -14.976696 -25.376140
RightArm 19.055945 31.910214 44.753389
RightForeArm -7.846098 0.000000 12.550033
RightHand 9.035830 -0.000000 4.235140
RightHandThumb1 -24.326973 -0.000000 -32.862282
LeftShoulder -24.630791 7.815207 28.064024
LeftArm 17.075564 -31.976771 -41.502237
LeftForeArm 1.078111 -0.000000 6.697357
LeftHand -3.672941 -0.000000 5.745000
LeftHandThumb1 -26.253704 0.000000 33.147579
Head 0.992584 6.464057 -0.380878
137
root -2.320795 33.147899 0.618040 8.101349 -3.406751 3.080626
RightUpLeg -2.290435 -6.243757 -1.674874
RightLeg -0.002467 -0.000000 0.000000
RightFoot -11.580358 -5.188339 3.709369
RightToeBase 4.978873 -0.000000 -0.000000
LeftUpLeg -3.048029 1.984228 -0.154469
LeftLeg 2.359929 -0.000000 -0.000000
LeftFoot -10.820673 2.064183 -16.446864
LeftToeBase 8.116654 -0.000000 -0.000000
Spine -9.852488 -2.021539 -2.532830
RightShoulder -18.765310 -14.958239 -25.368108
RightArm 19.060607 31.870125 44.752343
RightForeArm -7.872575 -0.000000 12.521122
RightHand 9.020958 -0.000000 4.305866
RightHandThumb1 -24.326973 -0.000000 -32.862282
LeftShoulder -24.629739 7.821667 28.055464
LeftArm 17.101360 -31.932277 -41.497492
LeftForeArm 1.045063 0.000000 6.693501
LeftHand -3.718308 -0.000000 5.858560
LeftHandThumb1 -26.253704 0.000000 33.147579
Head 1.216960 6.608646 -0.337648
138
root -2.322396 33.148004 0.613342 8.105592 -3.437917 3.075794
RightUpLeg -2.305900 -6.218104 -1.668303
RightLeg -0.009522 -0.000000 0.000000
RightFoot -11.561954 -5.188030 3.701782
RightToeBase 5.011793 -0.000000 -0.000000
LeftUpLeg -3.063419 1.991888 -0.152950
LeftLeg 2.382842 -0.000000 -0.000000
LeftFoot -10.824270 2.067539 -16.503498
LeftToeBase 8.045474 -0.000000 -0.000000
Spine -9.839531 -2.006324 -2.542725
RightShoulder -18.737614 -14.948379 -25.384581
RightArm 19.076062 31.868523 44.806254
RightForeArm -7.879065 -0.000000 12.515536
RightHand 9.019991 -0.000000 4.398794
RightHandThumb1 -24.326973 -0.000000 -32.862282
LeftShoulder -24.618905 7.821186 28.054544
LeftArm 17.120246 -31.897700 -41.488125
LeftForeArm 0.975450 -0.000000 6.670453
LeftHand -3.764096 -0.000000 5.915934
LeftHandThumb1 -26.253704 0.000000 33.147579
Head 1.483903 6.723711 -0.303666
139
root -2.324627 33.148051 0.609524 8.104844 -3.474741 3.070629
RightUpLeg -2.319502 -6.204087 -1.660991
RightLeg -0.007742 -0.000000 0.000000
RightFoot -11.541217 -5.174129 3.657999
RightToeBase 4.946922 -0.000000 -0.000000
LeftUpLeg -3.063258 2.007891 -0.149490
LeftLeg 2.381020 -0.000000 -0.000000
LeftFoot -10.831484 2.089825 -16.521323
LeftToeBase 8.065991 -0.000000 -0.000000
Spine -9.823680 -1.984948 -2.560126
RightShoulder -18.712597 -14.969122 -25.372061
RightArm 19.117729 31.877109 44.860945
RightForeArm -7.851699 -0.000000 12.514825
RightHand 9.016291 0.000000 4.370627
RightHandThumb1 -24.326973 -0.000000 -32.862282
LeftShoulder -24.608008 7.817874 28.064625
LeftArm 17.164219 -31.896290 -41.489554
LeftForeArm 0.919629 0.000000 6.604191
LeftHand -3.832258 0.000000 5.991126
LeftHandThumb1 -26.253704 0.000000 33.147579
Head 1.752992 6.821698 -0.256609
140
root -2.327712 33.148407 0.604367 8.105813 -3.507474 3.060396
RightUpLeg -2.335018 -6.182310 -1.648426
RightLeg -0.007550 -0.000000 0.000000
RightFoot -11.534233 -5.154232 3.674999
RightToeBase 4.966859 -0.000000 -0.000000
LeftUpLeg -3.075832 2.030022 -0.139819
LeftLeg 2.396000 -0.000000 -0.000000
LeftFoot -10.844106 2.109367 -16.521708
LeftToeBase 8.050947 -0.000000 -0.000000
Spine -9.804885 -1.970976 -2.572968
RightShoulder -18.679411 -14.949732 -25.370657
RightArm 19.116943 31.893871 44.911682
RightForeArm -7.888772 -0.000000 12.546608
RightHand 9.044530 -0.000000 4.358925
RightHandThumb1 -24.326973 -0.000000 -32.862282
LeftShoulder -24.600484 7.831846 28.069543
LeftArm 17.232652 -31.935530 -41.497697
LeftForeArm 0.898839 -0.000000 6.503027
LeftHand -3.749163 -0.000000 5.893891
LeftHandThumb1 -26.253704 0.000000 33.147579
Head 2.061575 6.987294 -0.199190
141
root -2.330608 33.148709 0.598563 8.106983 -3.540948 3.053079
RightUpLeg -2.353026 -6.166669 -1.639177
RightLeg -0.004831 -0.000000 0.000000
RightFoot -11.521361 -5.130035 3.688108
RightToeBase 4.986490 -0.000000 -0.000000
LeftUpLeg -3.087513 2.046089 -0.130308
LeftLeg 2.409177 -0.000000 -0.000000
LeftFoot -10.851348 2.117140 -16.531374
LeftToeBase 8.078332 -0.000000 -0.000000
Spine -9.783423 -1.943068 -2.596824
RightShoulder -18.660265 -14.963209 -25.341719
RightArm 19.134476 31.903733 44.948448
RightForeArm -7.881194 -0.000000 12.566105
RightHand 9.031581 -0.000000 4.411167
RightHandThumb1 -24.326973 -0.000000 -32.862282
LeftShoulder -24.571017 7.802187 28.109326
LeftArm 17.292415 -32.047472 -41.526879
LeftForeArm 1.009472 -0.000000 6.370460
LeftHand -3.719248 -0.000000 5.790802
LeftHandThumb1 -26.253704 0.000000 33.147579
Head 2.365392 7.090988 -0.126713
